<svg aria-hidden="true" style="position: absolute; width: 0; height: 0; overflow: hidden;" version="1.1" xmlns="http://www.w3.org/2000/svg" xmlns:xlink="http://www.w3.org/1999/xlink">
<defs>
<symbol id="icon-search" viewBox="0 0 30 32">
<path d="M20.571 14.857c0-4.411-3.589-8-8-8s-8 3.589-8 8 3.589 8 8 8 8-3.589 8-8zM29.714 29.714c0 1.25-1.036 2.286-2.286 2.286-0.607 0-1.196-0.25-1.607-0.679l-6.125-6.107c-2.089 1.446-4.589 2.214-7.125 2.214-6.946 0-12.571-5.625-12.571-12.571s5.625-12.571 12.571-12.571 12.571 5.625 12.571 12.571c0 2.536-0.768 5.036-2.214 7.125l6.125 6.125c0.411 0.411 0.661 1 0.661 1.607z"></path>
</symbol>
<symbol id="icon-heart-liked" viewBox="0 0 32 32">
<path d="M16 29.714c-0.286 0-0.571-0.107-0.786-0.321l-11.143-10.75c-0.143-0.125-4.071-3.714-4.071-8 0-5.232 3.196-8.357 8.536-8.357 3.125 0 6.054 2.464 7.464 3.857 1.411-1.393 4.339-3.857 7.464-3.857 5.339 0 8.536 3.125 8.536 8.357 0 4.286-3.929 7.875-4.089 8.036l-11.125 10.714c-0.214 0.214-0.5 0.321-0.786 0.321z"></path>
</symbol>
<symbol id="icon-remove" viewBox="0 0 25 32">
<path d="M23.179 23.607c0 0.446-0.179 0.893-0.5 1.214l-2.429 2.429c-0.321 0.321-0.768 0.5-1.214 0.5s-0.893-0.179-1.214-0.5l-5.25-5.25-5.25 5.25c-0.321 0.321-0.768 0.5-1.214 0.5s-0.893-0.179-1.214-0.5l-2.429-2.429c-0.321-0.321-0.5-0.768-0.5-1.214s0.179-0.893 0.5-1.214l5.25-5.25-5.25-5.25c-0.321-0.321-0.5-0.768-0.5-1.214s0.179-0.893 0.5-1.214l2.429-2.429c0.321-0.321 0.768-0.5 1.214-0.5s0.893 0.179 1.214 0.5l5.25 5.25 5.25-5.25c0.321-0.321 0.768-0.5 1.214-0.5s0.893 0.179 1.214 0.5l2.429 2.429c0.321 0.321 0.5 0.768 0.5 1.214s-0.179 0.893-0.5 1.214l-5.25 5.25 5.25 5.25c0.321 0.321 0.5 0.768 0.5 1.214z"></path>
</symbol>
<symbol id="icon-heart-unliked" viewBox="0 0 32 32">
<path d="M29.714 10.643c0-5.018-3.393-6.071-6.25-6.071-2.661 0-5.661 2.875-6.589 3.982-0.429 0.518-1.321 0.518-1.75 0-0.929-1.107-3.929-3.982-6.589-3.982-2.857 0-6.25 1.054-6.25 6.071 0 3.268 3.304 6.304 3.339 6.339l10.375 10 10.357-9.982c0.054-0.054 3.357-3.089 3.357-6.357zM32 10.643c0 4.286-3.929 7.875-4.089 8.036l-11.125 10.714c-0.214 0.214-0.5 0.321-0.786 0.321s-0.571-0.107-0.786-0.321l-11.143-10.75c-0.143-0.125-4.071-3.714-4.071-8 0-5.232 3.196-8.357 8.536-8.357 3.125 0 6.054 2.464 7.464 3.857 1.411-1.393 4.339-3.857 7.464-3.857 5.339 0 8.536 3.125 8.536 8.357z"></path>
</symbol>
</defs>
</svg>
